<svg width="55" height="55" viewBox="0 0 55 55" fill="none" xmlns="http://www.w3.org/2000/svg">
<g clip-path="url(#clip0_1_1079)">
<path opacity="0.5" d="M49.9373 3.4375H25.7737C22.9773 3.4375 20.711 5.70427 20.711 8.50018V20.4026C21.9883 21.0375 23.3684 21.724 24.6567 22.3643L26.6276 18.4208C27.821 16.0361 30.7302 15.0672 33.114 16.2585C35.5029 17.454 36.471 20.3552 35.2751 22.7445L31.7616 29.7731C31.8548 30.7034 31.7721 31.6412 31.5098 32.5488H33.8295L27.7115 49.3721C27.3485 50.3699 28.0501 51.5344 29.2263 51.5344C29.8838 51.5344 30.5023 51.1286 30.7398 50.4732L37.2582 32.5488H38.3874L44.972 50.4786C45.2116 51.1307 45.8284 51.5344 46.4855 51.5344C47.5845 51.5344 48.3902 50.4367 47.997 49.3679L41.8202 32.5488H49.9373C52.7332 32.5488 55 30.2821 55 27.4862V8.50018C55 5.70427 52.7332 3.4375 49.9373 3.4375V3.4375ZM46.4847 25.6457H39.2551C38.3655 25.6457 37.6438 24.924 37.6438 24.0344C37.6438 23.144 38.3655 22.4231 39.2551 22.4231H46.4847C47.3751 22.4231 48.096 23.144 48.096 24.0344C48.096 24.924 47.3751 25.6457 46.4847 25.6457ZM46.4847 19.6045H39.2551C38.3655 19.6045 37.6438 18.8836 37.6438 17.9932C37.6438 17.1036 38.3655 16.3818 39.2551 16.3818H46.4847C47.3751 16.3818 48.096 17.1036 48.096 17.9932C48.096 18.8836 47.3751 19.6045 46.4847 19.6045ZM46.4847 13.5641H29.2263C28.3359 13.5641 27.615 12.8424 27.615 11.9528C27.615 11.0632 28.3359 10.3415 29.2263 10.3415H46.4847C47.3751 10.3415 48.096 11.0632 48.096 11.9528C48.096 12.8424 47.3751 13.5641 46.4847 13.5641Z" fill="#DD5BF2"/>
<path d="M28.351 31.8577C28.6422 31.0046 28.6401 30.1134 28.3942 29.3002L32.3932 21.3031C32.791 20.5071 32.4687 19.539 31.6727 19.1412C30.8771 18.743 29.909 19.0657 29.5108 19.8617L26.1002 26.6822C24.0617 25.6671 20.9645 24.1271 18.4694 22.8863C16.1481 21.7319 14.4915 20.6968 11.6649 20.6968H10.2412C12.4421 20.6968 14.4063 19.6838 15.692 18.0985C16.6731 16.8921 17.2597 15.3546 17.2597 13.6791C17.2597 9.80225 14.1176 6.66016 10.2403 6.66016C6.36475 6.66016 3.22266 9.80225 3.22266 13.6791C3.22266 15.5409 3.94775 17.2328 5.13065 18.4883C6.40965 19.8483 8.22617 20.6968 10.2399 20.6972C7.54009 20.6972 4.9007 21.7911 3.00194 23.6949C1.06625 25.6256 0 28.1978 0 30.9379V36.1156C0 38.3446 1.44726 40.2412 3.45177 40.916V49.9226C3.45177 50.8126 4.17309 51.534 5.0631 51.534H15.4184C16.3084 51.534 17.0297 50.8126 17.0297 49.9226V31.8183C18.5576 32.582 20.5646 33.5853 22.1885 34.3977C23.3269 34.9667 24.6571 35.0179 25.8434 34.5353C27.0263 34.0485 27.9381 33.0796 28.3447 31.8766C28.3468 31.8703 28.3489 31.864 28.351 31.8577Z" fill="#DD5BF2"/>
</g>
<defs>
<clipPath id="clip0_1_1079">
<rect width="55" height="55" fill="white"/>
</clipPath>
</defs>
</svg>
