<svg width="55" height="55" viewBox="0 0 55 55" fill="none" xmlns="http://www.w3.org/2000/svg">
<g clip-path="url(#clip0_1_1060)">
<path d="M40.5405 31.8329C32.8214 35.495 31.5435 37.2464 30.5942 45.5002C30.1036 45.5247 29.5885 45.5713 29.0735 45.5713C20.0004 45.5713 10.9249 45.5688 1.85185 45.5566C0.282029 45.5541 -0.0834443 45.223 0.0146693 43.6851C0.588634 34.666 4.91053 28.1169 13.054 24.158C13.4538 23.9642 14.1675 24.055 14.5747 24.2905C19.7012 27.2535 24.7957 27.3124 29.9221 24.3003C30.2876 24.0844 30.8836 23.9078 31.2221 24.055C34.8965 25.6542 37.9356 28.0703 40.2878 31.3277C40.3835 31.4601 40.435 31.6171 40.5405 31.8329Z" fill="#51D5A5"/>
<path d="M22.262 24.4107C15.5584 24.4205 10.0984 18.9727 10.0714 12.247C10.0468 5.45512 15.4946 -0.00490237 22.2939 3.30312e-06C29.022 0.00490898 34.4894 5.44776 34.5017 12.1489C34.5139 18.9138 29.0367 24.4008 22.262 24.4107Z" fill="#51D5A5"/>
<path opacity="0.6" d="M43.376 55C37.5014 54.9902 32.7944 50.2759 32.7969 44.3964C32.7969 38.5145 37.4916 33.7977 43.3662 33.7781C49.2677 33.7585 54.0434 38.5415 54.0213 44.4528C53.9992 50.3127 49.2603 55.0074 43.376 55ZM41.9067 45.8117C41.2297 45.1715 40.7637 44.5681 40.1529 44.2125C39.7188 43.9598 38.9167 43.7906 38.5831 44.0211C37.9037 44.4921 38.2446 45.1691 38.7499 45.6842C39.4343 46.3832 40.1407 47.0602 40.8152 47.7691C41.5461 48.5393 42.1937 48.4362 42.8928 47.7053C43.8494 46.7021 44.8526 45.7455 45.8313 44.7619C46.6382 43.9549 47.5114 43.197 48.2007 42.2992C48.2547 42.2281 48.289 42.1423 48.3086 42.0466C48.4509 41.3623 47.8377 40.749 47.146 40.83C47.0135 40.8447 46.8835 40.8692 46.756 40.9085C46.4445 41.0041 46.2213 41.3892 45.9637 41.6517C44.6318 43.0179 43.2999 44.3842 41.9067 45.8117Z" fill="#51D5A5"/>
</g>
<defs>
<clipPath id="clip0_1_1060">
<rect width="55" height="55" fill="white"/>
</clipPath>
</defs>
</svg>
