<svg width="55" height="55" viewBox="0 0 55 55" fill="none" xmlns="http://www.w3.org/2000/svg">
<g clip-path="url(#clip0_1_1049)">
<path d="M14.6094 42.1094C18.169 42.1094 21.0547 39.2237 21.0547 35.6641C21.0547 32.1044 18.169 29.2188 14.6094 29.2188C11.0497 29.2188 8.16406 32.1044 8.16406 35.6641C8.16406 39.2237 11.0497 42.1094 14.6094 42.1094Z" fill="#015EB9"/>
<path d="M3.33008 53.3887C3.33008 54.2793 4.05077 55 4.94141 55H24.2773C25.168 55 25.8887 54.2793 25.8887 53.3887C25.8887 47.1699 20.8281 42.1094 14.6094 42.1094C8.39062 42.1094 3.33008 47.1699 3.33008 53.3887Z" fill="#015EB9"/>
<path d="M40.3906 42.1094C43.9503 42.1094 46.8359 39.2237 46.8359 35.6641C46.8359 32.1044 43.9503 29.2188 40.3906 29.2188C36.831 29.2188 33.9453 32.1044 33.9453 35.6641C33.9453 39.2237 36.831 42.1094 40.3906 42.1094Z" fill="#015EB9"/>
<path d="M29.1113 53.3887C29.1113 54.2793 29.832 55 30.7227 55H50.0586C50.9492 55 51.6699 54.2793 51.6699 53.3887C51.6699 47.1699 46.6094 42.1094 40.3906 42.1094C34.1719 42.1094 29.1113 47.1699 29.1113 53.3887Z" fill="#015EB9"/>
<path opacity="0.5" d="M50.166 0H4.83398C2.16842 0 0 2.16842 0 4.83398V17.7246C0 20.3902 2.16842 22.5586 4.83398 22.5586H10.6121L13.3626 25.3091C13.992 25.9385 15.0118 25.9385 15.6412 25.3091L18.3918 22.5586H36.6082L39.3587 25.3091C39.9881 25.9385 41.0078 25.9386 41.6373 25.3091L44.3879 22.5586H50.166C52.8316 22.5586 55 20.3902 55 17.7246V4.83398C55 2.16842 52.8316 0 50.166 0ZM20.9473 16.1133H8.05664C7.16601 16.1133 6.44531 15.3926 6.44531 14.502C6.44531 13.6113 7.16601 12.8906 8.05664 12.8906H20.9473C21.8379 12.8906 22.5586 13.6113 22.5586 14.502C22.5586 15.3926 21.8379 16.1133 20.9473 16.1133ZM20.9473 9.66797H8.05664C7.16601 9.66797 6.44531 8.94728 6.44531 8.05664C6.44531 7.16601 7.16601 6.44531 8.05664 6.44531H20.9473C21.8379 6.44531 22.5586 7.16601 22.5586 8.05664C22.5586 8.94728 21.8379 9.66797 20.9473 9.66797ZM46.9434 16.1133H34.0527C33.1621 16.1133 32.4414 15.3926 32.4414 14.502C32.4414 13.6113 33.1621 12.8906 34.0527 12.8906H46.9434C47.834 12.8906 48.5547 13.6113 48.5547 14.502C48.5547 15.3926 47.834 16.1133 46.9434 16.1133ZM46.9434 9.66797H34.0527C33.1621 9.66797 32.4414 8.94728 32.4414 8.05664C32.4414 7.16601 33.1621 6.44531 34.0527 6.44531H46.9434C47.834 6.44531 48.5547 7.16601 48.5547 8.05664C48.5547 8.94728 47.834 9.66797 46.9434 9.66797Z" fill="#015EB9"/>
</g>
<defs>
<clipPath id="clip0_1_1049">
<rect width="55" height="55" fill="white"/>
</clipPath>
</defs>
</svg>
