<svg width="55" height="55" viewBox="0 0 55 55" fill="none" xmlns="http://www.w3.org/2000/svg">
<g clip-path="url(#clip0_1_1100)">
<g clip-path="url(#clip1_1_1100)">
<path d="M41.8419 9.39082C41.8419 8.10068 41.3381 6.88574 40.4261 5.97266L35.8693 1.41582C34.9691 0.515625 33.6918 0 32.42 0H32.1428V9.66797H41.8419V9.39082Z" fill="#5C80FF"/>
<path d="M29.4271 33.2514C29.7354 32.3146 30.2736 31.4435 30.9751 30.7366L41.8849 19.8709V12.8906H30.5626C29.6721 12.8906 29.0039 12.1698 29.0039 11.2793V0H4.83398C2.16885 0 0 2.16885 0 4.83398V50.166C0 52.8312 2.16885 55 4.83398 55H37.0079C39.673 55 41.8849 52.8312 41.8849 50.166V38.1401L40.1146 39.8675C39.397 40.5786 38.5569 41.0964 37.6095 41.4133L32.4855 43.1234L31.7045 43.1664C30.4144 43.1664 29.193 42.538 28.4346 41.4874C27.6826 40.4411 27.4774 39.0844 27.8867 37.8587L29.4271 33.2514ZM8.05664 29.0039H24.1173C25.0078 29.0039 25.7286 29.7247 25.7286 30.6152C25.7286 31.5058 25.0078 32.2266 24.1173 32.2266H8.05664C7.16611 32.2266 6.44531 31.5058 6.44531 30.6152C6.44531 29.7247 7.16611 29.0039 8.05664 29.0039ZM6.44531 24.1699C6.44531 23.2794 7.16611 22.5586 8.05664 22.5586H24.1173C25.0078 22.5586 25.7286 23.2794 25.7286 24.1699C25.7286 25.0604 25.0078 25.7812 24.1173 25.7812H8.05664C7.16611 25.7812 6.44531 25.0604 6.44531 24.1699ZM6.44531 37.0605C6.44531 36.17 7.16611 35.4492 8.05664 35.4492H24.1173C25.0078 35.4492 25.7286 36.17 25.7286 37.0605C25.7286 37.9511 25.0078 38.6719 24.1173 38.6719H8.05664C7.16611 38.6719 6.44531 37.9511 6.44531 37.0605ZM30.5626 45.1172C31.4531 45.1172 32.1739 45.838 32.1739 46.7285C32.1739 47.619 31.4531 48.3398 30.5626 48.3398H20.8946C20.0041 48.3398 19.2833 47.619 19.2833 46.7285C19.2833 45.838 20.0041 45.1172 20.8946 45.1172H30.5626ZM8.05664 19.3359C7.16611 19.3359 6.44531 18.6151 6.44531 17.7246C6.44531 16.8341 7.16611 16.1133 8.05664 16.1133H30.5626C31.4531 16.1133 32.1739 16.8341 32.1739 17.7246C32.1739 18.6151 31.4531 19.3359 30.5626 19.3359H8.05664Z" fill="#5C80FF"/>
<path opacity="0.6" d="M32.3457 34.6768L30.9439 38.8824C30.7333 39.5119 31.3338 40.1113 31.9633 39.9007L36.1667 38.4967L32.3457 34.6768Z" fill="#5C80FF"/>
<path opacity="0.6" d="M44.8604 21.4102L34.2482 32.0224L38.8254 36.5997C41.2241 34.2009 45.8906 29.5335 49.4365 25.9875L44.8604 21.4102Z" fill="#5C80FF"/>
<path opacity="0.6" d="M54.0526 16.7879C53.4864 16.2186 52.6518 15.892 51.7677 15.892C50.8836 15.892 50.0489 16.2175 49.4796 16.789L47.1378 19.1308L51.714 23.707C52.9955 22.4254 53.8818 21.5392 54.0558 21.3652C55.3148 20.1051 55.3148 18.0523 54.0526 16.7879Z" fill="#5C80FF"/>
<path d="M54.0558 21.3662C54.0569 21.3662 54.0569 21.3651 54.0558 21.3662C54.0601 21.3619 54.0622 21.3597 54.0655 21.3565C54.0622 21.3597 54.0612 21.3619 54.0558 21.3662Z" fill="#5C80FF"/>
<path d="M54.0654 21.3566C54.0708 21.3512 54.0762 21.3459 54.0794 21.3427C54.0772 21.3459 54.0708 21.3512 54.0654 21.3566Z" fill="#5C80FF"/>
<path d="M54.0804 21.3426C54.0901 21.3318 54.0912 21.3318 54.0804 21.3426V21.3426Z" fill="#5C80FF"/>
<path d="M26.0348 34.6768H3.05078V40.5711H26.0348V34.6768Z" fill="#5C80FF"/>
</g>
</g>
<defs>
<clipPath id="clip0_1_1100">
<rect width="55" height="55" fill="white"/>
</clipPath>
<clipPath id="clip1_1_1100">
<rect width="55" height="55" fill="white"/>
</clipPath>
</defs>
</svg>
