<svg width="55" height="55" viewBox="0 0 55 55" fill="none" xmlns="http://www.w3.org/2000/svg">
<g clip-path="url(#clip0_1_1087)">
<path opacity="0.5" d="M19.8246 12.9667L21.916 14.4824L21.1176 16.934C20.7458 18.0756 21.1485 19.3176 22.1196 20.0246C23.0929 20.7329 24.4009 20.7342 25.3755 20.0278L27.4707 18.5091L29.566 20.0278C30.0523 20.3804 30.622 20.5567 31.1916 20.5567C31.763 20.5567 32.3345 20.3793 32.8217 20.0246C33.7929 19.3177 34.1957 18.0757 33.8239 16.934L33.0255 14.4825L35.117 12.9665C36.0905 12.2608 36.4952 11.0187 36.1245 9.87583C35.7534 8.73157 34.6951 7.96275 33.4912 7.96275H30.9022L30.103 5.50849C29.731 4.36616 28.6731 3.59863 27.4707 3.59863C26.2684 3.59863 25.2105 4.36616 24.8385 5.50838L24.0393 7.96275H21.4503C20.2463 7.96275 19.188 8.73157 18.8168 9.87594C18.4462 11.0188 18.8511 12.2609 19.8246 12.9667Z" fill="#FF545F"/>
<path opacity="0.5" d="M1.14467 12.9666L3.23596 14.4825L2.4376 16.934C2.06581 18.0757 2.46854 19.3176 3.43974 20.0246C3.92711 20.3794 4.49838 20.5568 5.06987 20.5567C5.63942 20.5567 6.20907 20.3804 6.69548 20.0279L8.79074 18.5091L10.8861 20.0279C11.8603 20.734 13.1688 20.7328 14.1419 20.0246C15.113 19.3177 15.5157 18.0756 15.1439 16.934L14.3455 14.4825L16.4369 12.9666C17.4104 12.2609 17.8153 11.0188 17.4447 9.87594C17.0735 8.73168 16.0152 7.96275 14.8112 7.96275H12.2222L11.423 5.50838V5.50849C11.051 4.36616 9.99312 3.59863 8.79074 3.59863C7.58837 3.59863 6.53048 4.36616 6.15848 5.50838L5.35926 7.96275H2.77029C1.56641 7.96275 0.508089 8.73157 0.136947 9.87583C-0.233766 11.0188 0.171214 12.2609 1.14467 12.9666Z" fill="#FF545F"/>
<path opacity="0.5" d="M38.5631 12.9666L40.6545 14.4825L39.8561 16.934C39.4843 18.0756 39.887 19.3176 40.8581 20.0246C41.8314 20.7329 43.1395 20.7342 44.114 20.0278L46.2093 18.5091L48.3045 20.0278C48.7908 20.3804 49.3605 20.5567 49.9301 20.5567C50.5015 20.5567 51.073 20.3793 51.5603 20.0246C52.5315 19.3177 52.9342 18.0757 52.5624 16.934L51.764 14.4825L53.8553 12.9666C54.8289 12.2609 55.2338 11.0188 54.8631 9.87583C54.4919 8.73157 53.4336 7.96275 52.2297 7.96275H49.6407L48.8415 5.50838V5.50849C48.4695 4.36616 47.4116 3.59863 46.2093 3.59863C45.0069 3.59863 43.949 4.36616 43.577 5.50838L42.7778 7.96275H40.1888C38.9848 7.96275 37.9265 8.73157 37.5553 9.87594C37.1847 11.0188 37.5897 12.2609 38.5631 12.9666Z" fill="#FF545F"/>
<path d="M15.661 42.2845C11.5231 42.2845 8.15546 45.6511 8.15546 49.7901C8.15546 50.3433 8.21561 50.8825 8.32948 51.4014H22.9936C23.1075 50.8825 23.1677 50.3433 23.1677 49.7901C23.1677 45.6511 19.8 42.2845 15.661 42.2845Z" fill="#FF545F"/>
<path d="M18.7558 35.9681C18.7558 34.2676 17.3679 32.8851 15.661 32.8851C13.9551 32.8851 12.5673 34.2676 12.5673 35.9681C12.5673 37.6686 13.9551 39.0511 15.661 39.0511C17.3679 39.0511 18.7558 37.6686 18.7558 35.9681Z" fill="#FF545F"/>
<path d="M48.3001 23.8187H6.6999C3.00566 23.8187 0 26.8243 0 30.5186V44.7015C0 47.8178 2.1377 50.4432 5.02412 51.1887C4.96396 50.7311 4.93281 50.2638 4.93281 49.7901C4.93281 45.5662 7.38633 41.9053 10.9431 40.1565C9.94834 39.0425 9.34463 37.5751 9.34463 35.9681C9.34463 32.4908 12.1784 29.6624 15.661 29.6624C19.1447 29.6624 21.9785 32.4908 21.9785 35.9681C21.9785 37.5751 21.3737 39.0425 20.3801 40.1565C23.9368 41.9053 26.3903 45.5662 26.3903 49.7901C26.3903 50.3379 26.3495 50.8761 26.27 51.4014H48.3001C51.9943 51.4014 55 48.3957 55 44.7015V30.5186C55 26.8243 51.9943 23.8187 48.3001 23.8187ZM39.5169 38.2404H32.4257C31.5358 38.2404 30.8144 37.5189 30.8144 36.629C30.8144 35.7392 31.5358 35.0177 32.4257 35.0177H39.5169C40.4067 35.0177 41.1282 35.7392 41.1282 36.629C41.1282 37.5189 40.4067 38.2404 39.5169 38.2404ZM47.2956 32.8849H32.3825C31.4927 32.8849 30.7712 32.1634 30.7712 31.2735C30.7712 30.3836 31.4927 29.6622 32.3825 29.6622H47.2956C48.1855 29.6622 48.9069 30.3836 48.9069 31.2735C48.9069 32.1634 48.1855 32.8849 47.2956 32.8849Z" fill="#FF545F"/>
</g>
<defs>
<clipPath id="clip0_1_1087">
<rect width="55" height="55" fill="white"/>
</clipPath>
</defs>
</svg>
