<svg width="55" height="55" viewBox="0 0 55 55" fill="none" xmlns="http://www.w3.org/2000/svg">
<g clip-path="url(#clip0_1_1069)">
<g clip-path="url(#clip1_1_1069)">
<path opacity="0.5" d="M50.1661 8.59375H45.3329V3.22309C45.3329 1.443 43.8899 0 42.1099 0C40.3298 0 38.8868 1.443 38.8868 3.22309V6.2381C38.8868 7.89895 37.8202 9.34313 36.2327 9.83157L33.5157 10.6676V27.3926C33.5157 27.4352 33.5135 27.4773 33.5125 27.5197C34.4628 28.47 35.7518 29.0039 37.0957 29.0039H50.1661C52.8358 29.0039 55 26.8397 55 24.1699V13.4277C55 10.758 52.8358 8.59375 50.1661 8.59375Z" fill="#FFB547"/>
<path opacity="0.5" d="M28.6816 29.0039H25.459C24.5691 29.0039 23.8477 28.2825 23.8477 27.3926V10.2051C23.8477 9.3152 24.5691 8.59375 25.459 8.59375H28.6816C29.5715 8.59375 30.293 9.3152 30.293 10.2051V27.3926C30.293 28.2825 29.5715 29.0039 28.6816 29.0039Z" fill="#FFB547"/>
<path d="M37.0957 32.2266C35.3283 32.2266 33.6461 31.6757 32.2426 30.6577C31.3583 31.6212 30.0895 32.2266 28.6816 32.2266H25.459C22.7892 32.2266 20.625 30.0623 20.625 27.3926V19.0137H1.61133C0.721445 19.0137 0 19.7351 0 20.625V53.3385C0 53.9054 0.272422 54.4499 0.752168 54.7519C1.01589 54.9179 1.31398 55 1.61122 55C1.92382 55 2.23556 54.9091 2.50508 54.7294L8.54455 50.7031H42.4316C43.3215 50.7031 44.043 49.9817 44.043 49.0918V32.2266H37.0957ZM8.05664 27.0703H17.1875C18.0774 27.0703 18.7988 27.7918 18.7988 28.6816C18.7988 29.5715 18.0774 30.293 17.1875 30.293H8.05664C7.16676 30.293 6.44531 29.5715 6.44531 28.6816C6.44531 27.7918 7.16676 27.0703 8.05664 27.0703ZM35.9863 44.7949H8.05664C7.16676 44.7949 6.44531 44.0735 6.44531 43.1836C6.44531 42.2937 7.16676 41.5723 8.05664 41.5723H35.9863C36.8762 41.5723 37.5977 42.2937 37.5977 43.1836C37.5977 44.0735 36.8762 44.7949 35.9863 44.7949ZM35.9863 37.5439H8.05664C7.16676 37.5439 6.44531 36.8225 6.44531 35.9326C6.44531 35.0427 7.16676 34.3213 8.05664 34.3213H35.9863C36.8762 34.3213 37.5977 35.0427 37.5977 35.9326C37.5977 36.8225 36.8762 37.5439 35.9863 37.5439Z" fill="#FFB547"/>
</g>
</g>
<defs>
<clipPath id="clip0_1_1069">
<rect width="55" height="55" fill="white"/>
</clipPath>
<clipPath id="clip1_1_1069">
<rect width="55" height="55" fill="white"/>
</clipPath>
</defs>
</svg>
