<svg width="15" height="10" viewBox="0 0 15 10" fill="none" xmlns="http://www.w3.org/2000/svg">
<path d="M14.5234 4.76953C13.1523 2.07812 10.4102 0.25 7.3125 0.25C4.18945 0.25 1.44727 2.07812 0.0761719 4.76953C0.0253906 4.87109 0 4.99805 0 5.125C0 5.27734 0.0253906 5.4043 0.0761719 5.50586C1.44727 8.19727 4.18945 10 7.3125 10C10.4102 10 13.1523 8.19727 14.5234 5.50586C14.5742 5.4043 14.5996 5.27734 14.5996 5.15039C14.5996 4.99805 14.5742 4.87109 14.5234 4.76953ZM7.3125 8.78125C5.28125 8.78125 3.65625 7.15625 3.65625 5.125C3.65625 3.11914 5.28125 1.46875 7.3125 1.46875C9.31836 1.46875 10.9688 3.11914 10.9688 5.125V5.15039C10.9688 7.15625 9.31836 8.80664 7.3125 8.80664V8.78125ZM7.3125 2.6875C7.08398 2.71289 6.85547 2.73828 6.65234 2.78906C6.80469 2.99219 6.88086 3.24609 6.88086 3.52539C6.88086 4.18555 6.34766 4.71875 5.6875 4.71875C5.4082 4.71875 5.1543 4.64258 4.95117 4.49023C4.90039 4.69336 4.875 4.92188 4.875 5.125C4.875 6.4707 5.9668 7.5625 7.3125 7.5625C8.6582 7.5625 9.75 6.4707 9.75 5.125C9.75 3.7793 8.6582 2.71289 7.3125 2.71289V2.6875Z" fill="#4F5A5E"/>
</svg>
