<svg width="14" height="14" viewBox="0 0 14 14" fill="none" xmlns="http://www.w3.org/2000/svg">
<g clip-path="url(#clip0_1524_320)">
<path d="M8.74997 0H5.24998C4.47671 0.00092625 3.73539 0.308514 3.18861 0.855295C2.64183 1.40208 2.33424 2.1434 2.33331 2.91667V11.0833C2.33424 11.8566 2.64183 12.5979 3.18861 13.1447C3.73539 13.6915 4.47671 13.9991 5.24998 14H8.74997C9.52323 13.9991 10.2646 13.6915 10.8113 13.1447C11.3581 12.5979 11.6657 11.8566 11.6666 11.0833V2.91667C11.6657 2.1434 11.3581 1.40208 10.8113 0.855295C10.2646 0.308514 9.52323 0.00092625 8.74997 0V0ZM5.24998 1.16667H8.74997C9.2141 1.16667 9.65922 1.35104 9.9874 1.67923C10.3156 2.00742 10.5 2.45254 10.5 2.91667V9.33333H3.49998V2.91667C3.49998 2.45254 3.68435 2.00742 4.01254 1.67923C4.34073 1.35104 4.78585 1.16667 5.24998 1.16667ZM8.74997 12.8333H5.24998C4.78585 12.8333 4.34073 12.649 4.01254 12.3208C3.68435 11.9926 3.49998 11.5475 3.49998 11.0833V10.5H10.5V11.0833C10.5 11.5475 10.3156 11.9926 9.9874 12.3208C9.65922 12.649 9.2141 12.8333 8.74997 12.8333Z" fill="#015EB9"/>
<path d="M7.00002 12.2497C7.32218 12.2497 7.58335 11.9885 7.58335 11.6663C7.58335 11.3442 7.32218 11.083 7.00002 11.083C6.67785 11.083 6.41669 11.3442 6.41669 11.6663C6.41669 11.9885 6.67785 12.2497 7.00002 12.2497Z" fill="#015EB9"/>
</g>
<defs>
<clipPath id="clip0_1524_320">
<rect width="14" height="14" fill="white"/>
</clipPath>
</defs>
</svg>
